<?xml version="1.0" encoding="utf-8"?>
<svg xmlns="http://www.w3.org/2000/svg"
	xmlns:xlink="http://www.w3.org/1999/xlink"
	width="33px" height="47px" viewBox="0 0 33 47">
<path fillRule="evenodd" d="M 16.5 0C 7.56 0-0 7.71-0 16.83-0 25.48 14.71 45.56 15.34 46.41 15.61 46.78 16.04 47 16.5 47 16.96 47 17.39 46.78 17.66 46.41 18.29 45.56 33 25.48 33 16.83 33 7.71 25.44 0 16.5 0ZM 16.5 7.2C 21.84 7.2 26.19 11.52 26.19 16.84 26.19 22.15 21.84 26.48 16.5 26.48 11.16 26.48 6.81 22.15 6.81 16.84 6.81 11.52 11.16 7.2 16.5 7.2Z" fill="rgb(255,225,61)"/></svg>